<svg width="67" height="15" viewBox="0 0 67 15" fill="none" xmlns="http://www.w3.org/2000/svg">
<path d="M12.8127 1.103L7.55666 14H5.99066L0.734664 1.103H2.12966C2.28566 1.103 2.41166 1.142 2.50766 1.22C2.60366 1.298 2.67566 1.397 2.72366 1.517L6.35966 10.616C6.43766 10.82 6.51266 11.042 6.58466 11.282C6.66266 11.522 6.73166 11.774 6.79166 12.038C6.85166 11.774 6.91466 11.522 6.98066 11.282C7.04666 11.042 7.11866 10.82 7.19666 10.616L10.8237 1.517C10.8597 1.415 10.9287 1.322 11.0307 1.238C11.1387 1.148 11.2677 1.103 11.4177 1.103H12.8127ZM22.4653 12.578L22.4563 14H14.5093V1.103H22.4563V2.525H16.2553V6.809H21.2773V8.177H16.2553V12.578H22.4653ZM28.471 7.349C28.975 7.349 29.419 7.289 29.803 7.169C30.193 7.043 30.517 6.869 30.775 6.647C31.039 6.419 31.237 6.149 31.369 5.837C31.501 5.525 31.567 5.18 31.567 4.802C31.567 4.034 31.315 3.455 30.811 3.065C30.307 2.675 29.551 2.48 28.543 2.48H26.635V7.349H28.471ZM34.429 14H32.881C32.563 14 32.329 13.877 32.179 13.631L28.831 9.023C28.729 8.879 28.618 8.777 28.498 8.717C28.384 8.651 28.204 8.618 27.958 8.618H26.635V14H24.898V1.103H28.543C29.359 1.103 30.064 1.187 30.658 1.355C31.252 1.517 31.741 1.754 32.125 2.066C32.515 2.378 32.803 2.756 32.989 3.2C33.175 3.638 33.268 4.13 33.268 4.676C33.268 5.132 33.196 5.558 33.052 5.954C32.908 6.35 32.698 6.707 32.422 7.025C32.152 7.337 31.819 7.604 31.423 7.826C31.033 8.048 30.589 8.216 30.091 8.33C30.313 8.456 30.505 8.639 30.667 8.879L34.429 14ZM42.7801 3.119C42.7261 3.209 42.6661 3.278 42.6001 3.326C42.5401 3.368 42.4651 3.389 42.3751 3.389C42.2731 3.389 42.1531 3.338 42.0151 3.236C41.8771 3.134 41.7031 3.023 41.4931 2.903C41.2891 2.777 41.0401 2.663 40.7461 2.561C40.4581 2.459 40.1071 2.408 39.6931 2.408C39.3031 2.408 38.9581 2.462 38.6581 2.57C38.3641 2.672 38.1151 2.813 37.9111 2.993C37.7131 3.173 37.5631 3.386 37.4611 3.632C37.3591 3.872 37.3081 4.133 37.3081 4.415C37.3081 4.775 37.3951 5.075 37.5691 5.315C37.7491 5.549 37.9831 5.75 38.2711 5.918C38.5651 6.086 38.8951 6.233 39.2611 6.359C39.6331 6.479 40.0111 6.605 40.3951 6.737C40.7851 6.869 41.1631 7.019 41.5291 7.187C41.9011 7.349 42.2311 7.556 42.5191 7.808C42.8131 8.06 43.0471 8.369 43.2211 8.735C43.4011 9.101 43.4911 9.551 43.4911 10.085C43.4911 10.649 43.3951 11.18 43.2031 11.678C43.0111 12.17 42.7291 12.599 42.3571 12.965C41.9911 13.331 41.5381 13.619 40.9981 13.829C40.4641 14.039 39.8551 14.144 39.1711 14.144C38.3311 14.144 37.5691 13.994 36.8851 13.694C36.2011 13.388 35.6161 12.977 35.1301 12.461L35.6341 11.633C35.6821 11.567 35.7391 11.513 35.8051 11.471C35.8771 11.423 35.9551 11.399 36.0391 11.399C36.1171 11.399 36.2041 11.432 36.3001 11.498C36.4021 11.558 36.5161 11.636 36.6421 11.732C36.7681 11.828 36.9121 11.933 37.0741 12.047C37.2361 12.161 37.4191 12.266 37.6231 12.362C37.8331 12.458 38.0701 12.539 38.3341 12.605C38.5981 12.665 38.8951 12.695 39.2251 12.695C39.6391 12.695 40.0081 12.638 40.3321 12.524C40.6561 12.41 40.9291 12.251 41.1511 12.047C41.3791 11.837 41.5531 11.588 41.6731 11.3C41.7931 11.012 41.8531 10.691 41.8531 10.337C41.8531 9.947 41.7631 9.629 41.5831 9.383C41.4091 9.131 41.1781 8.921 40.8901 8.753C40.6021 8.585 40.2721 8.444 39.9001 8.33C39.5281 8.21 39.1501 8.09 38.7661 7.97C38.3821 7.844 38.0041 7.7 37.6321 7.538C37.2601 7.376 36.9301 7.166 36.6421 6.908C36.3541 6.65 36.1201 6.329 35.9401 5.945C35.7661 5.555 35.6791 5.075 35.6791 4.505C35.6791 4.049 35.7661 3.608 35.9401 3.182C36.1201 2.756 36.3781 2.378 36.7141 2.048C37.0561 1.718 37.4731 1.454 37.9651 1.256C38.4631 1.058 39.0331 0.958999 39.6751 0.958999C40.3951 0.958999 41.0491 1.073 41.6371 1.301C42.2311 1.529 42.7531 1.859 43.2031 2.291L42.7801 3.119ZM50.9336 12.614C51.4676 12.614 51.9446 12.524 52.3646 12.344C52.7846 12.164 53.1386 11.912 53.4266 11.588C53.7206 11.264 53.9426 10.877 54.0926 10.427C54.2486 9.977 54.3266 9.482 54.3266 8.942V1.103H56.0636V8.942C56.0636 9.686 55.9436 10.376 55.7036 11.012C55.4696 11.648 55.1306 12.2 54.6866 12.668C54.2486 13.13 53.7116 13.493 53.0756 13.757C52.4396 14.021 51.7256 14.153 50.9336 14.153C50.1416 14.153 49.4276 14.021 48.7916 13.757C48.1556 13.493 47.6156 13.13 47.1716 12.668C46.7276 12.2 46.3856 11.648 46.1456 11.012C45.9116 10.376 45.7946 9.686 45.7946 8.942V1.103H47.5316V8.933C47.5316 9.473 47.6066 9.968 47.7566 10.418C47.9126 10.868 48.1346 11.255 48.4226 11.579C48.7166 11.903 49.0736 12.158 49.4936 12.344C49.9196 12.524 50.3996 12.614 50.9336 12.614ZM65.7899 3.119C65.7359 3.209 65.6759 3.278 65.6099 3.326C65.5499 3.368 65.4749 3.389 65.3849 3.389C65.2829 3.389 65.1629 3.338 65.0249 3.236C64.8869 3.134 64.7129 3.023 64.5029 2.903C64.2989 2.777 64.0499 2.663 63.7559 2.561C63.4679 2.459 63.1169 2.408 62.7029 2.408C62.3129 2.408 61.9679 2.462 61.6679 2.57C61.3739 2.672 61.1249 2.813 60.9209 2.993C60.7229 3.173 60.5729 3.386 60.4709 3.632C60.3689 3.872 60.3179 4.133 60.3179 4.415C60.3179 4.775 60.4049 5.075 60.5789 5.315C60.7589 5.549 60.9929 5.75 61.2809 5.918C61.5749 6.086 61.9049 6.233 62.2709 6.359C62.6429 6.479 63.0209 6.605 63.4049 6.737C63.7949 6.869 64.1729 7.019 64.5389 7.187C64.9109 7.349 65.2409 7.556 65.5289 7.808C65.8229 8.06 66.0569 8.369 66.2309 8.735C66.4109 9.101 66.5009 9.551 66.5009 10.085C66.5009 10.649 66.4049 11.18 66.2129 11.678C66.0209 12.17 65.7389 12.599 65.3669 12.965C65.0009 13.331 64.5479 13.619 64.0079 13.829C63.4739 14.039 62.8649 14.144 62.1809 14.144C61.3409 14.144 60.5789 13.994 59.8949 13.694C59.2109 13.388 58.6259 12.977 58.1399 12.461L58.6439 11.633C58.6919 11.567 58.7489 11.513 58.8149 11.471C58.8869 11.423 58.9649 11.399 59.0489 11.399C59.1269 11.399 59.2139 11.432 59.3099 11.498C59.4119 11.558 59.5259 11.636 59.6519 11.732C59.7779 11.828 59.9219 11.933 60.0839 12.047C60.2459 12.161 60.4289 12.266 60.6329 12.362C60.8429 12.458 61.0799 12.539 61.3439 12.605C61.6079 12.665 61.9049 12.695 62.2349 12.695C62.6489 12.695 63.0179 12.638 63.3419 12.524C63.6659 12.41 63.9389 12.251 64.1609 12.047C64.3889 11.837 64.5629 11.588 64.6829 11.3C64.8029 11.012 64.8629 10.691 64.8629 10.337C64.8629 9.947 64.7729 9.629 64.5929 9.383C64.4189 9.131 64.1879 8.921 63.8999 8.753C63.6119 8.585 63.2819 8.444 62.9099 8.33C62.5379 8.21 62.1599 8.09 61.7759 7.97C61.3919 7.844 61.0139 7.7 60.6419 7.538C60.2699 7.376 59.9399 7.166 59.6519 6.908C59.3639 6.65 59.1299 6.329 58.9499 5.945C58.7759 5.555 58.6889 5.075 58.6889 4.505C58.6889 4.049 58.7759 3.608 58.9499 3.182C59.1299 2.756 59.3879 2.378 59.7239 2.048C60.0659 1.718 60.4829 1.454 60.9749 1.256C61.4729 1.058 62.0429 0.958999 62.6849 0.958999C63.4049 0.958999 64.0589 1.073 64.6469 1.301C65.2409 1.529 65.7629 1.859 66.2129 2.291L65.7899 3.119Z" fill="#C2C2C2"/>
</svg>
