<svg width="88" height="19" viewBox="0 0 88 19" fill="none" xmlns="http://www.w3.org/2000/svg">
<path d="M16.176 0.803999L9.168 18H7.08L0.072 0.803999H1.932C2.14 0.803999 2.308 0.855999 2.436 0.959999C2.564 1.064 2.66 1.196 2.724 1.356L7.572 13.488C7.676 13.76 7.776 14.056 7.872 14.376C7.976 14.696 8.068 15.032 8.148 15.384C8.228 15.032 8.312 14.696 8.4 14.376C8.488 14.056 8.584 13.76 8.688 13.488L13.524 1.356C13.572 1.22 13.664 1.096 13.8 0.983999C13.944 0.863999 14.116 0.803999 14.316 0.803999H16.176ZM29.0462 16.104L29.0342 18H18.4382V0.803999H29.0342V2.7H20.7662V8.412H27.4622V10.236H20.7662V16.104H29.0462ZM37.0538 9.132C37.7258 9.132 38.3178 9.052 38.8298 8.892C39.3498 8.724 39.7818 8.492 40.1258 8.196C40.4778 7.892 40.7418 7.532 40.9178 7.116C41.0938 6.7 41.1818 6.24 41.1818 5.736C41.1818 4.712 40.8458 3.94 40.1738 3.42C39.5018 2.9 38.4938 2.64 37.1497 2.64H34.6058V9.132H37.0538ZM44.9978 18H42.9338C42.5098 18 42.1978 17.836 41.9978 17.508L37.5338 11.364C37.3978 11.172 37.2498 11.036 37.0898 10.956C36.9378 10.868 36.6978 10.824 36.3698 10.824H34.6058V18H32.2898V0.803999H37.1497C38.2378 0.803999 39.1778 0.915999 39.9698 1.14C40.7618 1.356 41.4138 1.672 41.9258 2.088C42.4458 2.504 42.8298 3.008 43.0778 3.6C43.3258 4.184 43.4498 4.84 43.4498 5.568C43.4498 6.176 43.3538 6.744 43.1618 7.272C42.9698 7.8 42.6898 8.276 42.3218 8.7C41.9618 9.116 41.5178 9.472 40.9898 9.768C40.4698 10.064 39.8778 10.288 39.2138 10.44C39.5098 10.608 39.7658 10.852 39.9818 11.172L44.9978 18ZM56.1326 3.492C56.0606 3.612 55.9806 3.704 55.8926 3.768C55.8126 3.824 55.7126 3.852 55.5926 3.852C55.4566 3.852 55.2966 3.784 55.1126 3.648C54.9286 3.512 54.6966 3.364 54.4166 3.204C54.1446 3.036 53.8126 2.884 53.4206 2.748C53.0366 2.612 52.5686 2.544 52.0166 2.544C51.4966 2.544 51.0366 2.616 50.6366 2.76C50.2446 2.896 49.9126 3.084 49.6406 3.324C49.3766 3.564 49.1766 3.848 49.0406 4.176C48.9046 4.496 48.8366 4.844 48.8366 5.22C48.8366 5.7 48.9526 6.1 49.1846 6.42C49.4246 6.732 49.7366 7 50.1206 7.224C50.5126 7.448 50.9526 7.644 51.4406 7.812C51.9366 7.972 52.4406 8.14 52.9526 8.316C53.4726 8.492 53.9766 8.692 54.4646 8.916C54.9606 9.132 55.4006 9.408 55.7846 9.744C56.1766 10.08 56.4886 10.492 56.7206 10.98C56.9606 11.468 57.0806 12.068 57.0806 12.78C57.0806 13.532 56.9526 14.24 56.6966 14.904C56.4406 15.56 56.0646 16.132 55.5686 16.62C55.0806 17.108 54.4766 17.492 53.7566 17.772C53.0446 18.052 52.2326 18.192 51.3206 18.192C50.2006 18.192 49.1846 17.992 48.2726 17.592C47.3606 17.184 46.5806 16.636 45.9326 15.948L46.6046 14.844C46.6686 14.756 46.7446 14.684 46.8326 14.628C46.9286 14.564 47.0326 14.532 47.1446 14.532C47.2486 14.532 47.3646 14.576 47.4926 14.664C47.6286 14.744 47.7806 14.848 47.9486 14.976C48.1166 15.104 48.3086 15.244 48.5246 15.396C48.7406 15.548 48.9846 15.688 49.2566 15.816C49.5366 15.944 49.8526 16.052 50.2046 16.14C50.5566 16.22 50.9526 16.26 51.3926 16.26C51.9446 16.26 52.4366 16.184 52.8686 16.032C53.3006 15.88 53.6646 15.668 53.9606 15.396C54.2646 15.116 54.4966 14.784 54.6566 14.4C54.8166 14.016 54.8966 13.588 54.8966 13.116C54.8966 12.596 54.7766 12.172 54.5366 11.844C54.3046 11.508 53.9966 11.228 53.6126 11.004C53.2286 10.78 52.7886 10.592 52.2926 10.44C51.7966 10.28 51.2926 10.12 50.7806 9.96C50.2686 9.792 49.7646 9.6 49.2686 9.384C48.7726 9.168 48.3326 8.888 47.9486 8.544C47.5646 8.2 47.2526 7.772 47.0126 7.26C46.7806 6.74 46.6646 6.1 46.6646 5.34C46.6646 4.732 46.7806 4.144 47.0126 3.576C47.2526 3.008 47.5966 2.504 48.0446 2.064C48.5006 1.624 49.0566 1.272 49.7126 1.008C50.3766 0.743999 51.1366 0.611999 51.9926 0.611999C52.9526 0.611999 53.8246 0.763999 54.6086 1.068C55.4006 1.372 56.0966 1.812 56.6966 2.388L56.1326 3.492ZM67.0039 16.152C67.7159 16.152 68.3519 16.032 68.9119 15.792C69.4719 15.552 69.9439 15.216 70.3279 14.784C70.7199 14.352 71.0159 13.836 71.2159 13.236C71.4239 12.636 71.5279 11.976 71.5279 11.256V0.803999H73.8439V11.256C73.8439 12.248 73.6839 13.168 73.3639 14.016C73.0519 14.864 72.5999 15.6 72.0079 16.224C71.4239 16.84 70.7079 17.324 69.8599 17.676C69.0119 18.028 68.0599 18.204 67.0039 18.204C65.9479 18.204 64.9959 18.028 64.1479 17.676C63.2999 17.324 62.5799 16.84 61.9879 16.224C61.3959 15.6 60.9399 14.864 60.6199 14.016C60.3079 13.168 60.1519 12.248 60.1519 11.256V0.803999H62.4679V11.244C62.4679 11.964 62.5679 12.624 62.7679 13.224C62.9759 13.824 63.2719 14.34 63.6559 14.772C64.0479 15.204 64.5239 15.544 65.0839 15.792C65.6519 16.032 66.2919 16.152 67.0039 16.152ZM86.8123 3.492C86.7403 3.612 86.6603 3.704 86.5723 3.768C86.4923 3.824 86.3923 3.852 86.2723 3.852C86.1363 3.852 85.9763 3.784 85.7923 3.648C85.6083 3.512 85.3763 3.364 85.0963 3.204C84.8243 3.036 84.4923 2.884 84.1003 2.748C83.7163 2.612 83.2483 2.544 82.6963 2.544C82.1763 2.544 81.7163 2.616 81.3163 2.76C80.9243 2.896 80.5923 3.084 80.3203 3.324C80.0563 3.564 79.8563 3.848 79.7203 4.176C79.5843 4.496 79.5163 4.844 79.5163 5.22C79.5163 5.7 79.6323 6.1 79.8643 6.42C80.1043 6.732 80.4163 7 80.8003 7.224C81.1923 7.448 81.6323 7.644 82.1203 7.812C82.6163 7.972 83.1203 8.14 83.6323 8.316C84.1523 8.492 84.6563 8.692 85.1443 8.916C85.6403 9.132 86.0803 9.408 86.4643 9.744C86.8563 10.08 87.1683 10.492 87.4003 10.98C87.6403 11.468 87.7603 12.068 87.7603 12.78C87.7603 13.532 87.6323 14.24 87.3763 14.904C87.1203 15.56 86.7443 16.132 86.2483 16.62C85.7603 17.108 85.1563 17.492 84.4363 17.772C83.7243 18.052 82.9123 18.192 82.0003 18.192C80.8803 18.192 79.8643 17.992 78.9523 17.592C78.0403 17.184 77.2603 16.636 76.6123 15.948L77.2843 14.844C77.3483 14.756 77.4243 14.684 77.5123 14.628C77.6083 14.564 77.7123 14.532 77.8243 14.532C77.9283 14.532 78.0443 14.576 78.1723 14.664C78.3083 14.744 78.4603 14.848 78.6283 14.976C78.7963 15.104 78.9883 15.244 79.2043 15.396C79.4203 15.548 79.6643 15.688 79.9363 15.816C80.2163 15.944 80.5323 16.052 80.8843 16.14C81.2363 16.22 81.6323 16.26 82.0723 16.26C82.6243 16.26 83.1163 16.184 83.5483 16.032C83.9803 15.88 84.3443 15.668 84.6403 15.396C84.9443 15.116 85.1763 14.784 85.3363 14.4C85.4963 14.016 85.5763 13.588 85.5763 13.116C85.5763 12.596 85.4563 12.172 85.2163 11.844C84.9843 11.508 84.6763 11.228 84.2923 11.004C83.9083 10.78 83.4683 10.592 82.9723 10.44C82.4763 10.28 81.9723 10.12 81.4603 9.96C80.9483 9.792 80.4443 9.6 79.9483 9.384C79.4523 9.168 79.0123 8.888 78.6283 8.544C78.2443 8.2 77.9323 7.772 77.6923 7.26C77.4603 6.74 77.3443 6.1 77.3443 5.34C77.3443 4.732 77.4603 4.144 77.6923 3.576C77.9323 3.008 78.2763 2.504 78.7243 2.064C79.1803 1.624 79.7363 1.272 80.3923 1.008C81.0563 0.743999 81.8163 0.611999 82.6723 0.611999C83.6323 0.611999 84.5043 0.763999 85.2883 1.068C86.0803 1.372 86.7763 1.812 87.3763 2.388L86.8123 3.492Z" fill="white"/>
</svg>
